<?xml version="1.0" standalone="no"?>
<!DOCTYPE svg PUBLIC "-//W3C//DTD SVG 1.1//EN" "http://www.w3.org/Graphics/SVG/1.1/DTD/svg11.dtd" >
<svg xmlns="http://www.w3.org/2000/svg">
<metadata>
This is a custom SVG webfont generated by Font Squirrel.
</metadata>
<defs>
<font id="webfontEkAiH19Z" horiz-adv-x="817" >
<font-face units-per-em="2048" ascent="1505" descent="-543" />
<missing-glyph horiz-adv-x="398" />
<glyph unicode=" "  horiz-adv-x="398" />
<glyph unicode="&#x09;" horiz-adv-x="398" />
<glyph unicode="&#xa0;" horiz-adv-x="398" />
<glyph unicode="!" horiz-adv-x="528" d="M342 996q0 -48 -7 -93l-74 -524h-62l-30 453q-14 207 -114 207l-1 49l233 142q55 -80 55 -234zM368 113l-126 -135h-29l-126 135v27l126 131h29l126 -131v-27z" />
<glyph unicode="&#x22;" horiz-adv-x="689" d="M598 1095q0 -267 -169 -383l-49 45q47 63 47 219q0 65 -12 168h158q25 0 25 -49zM291 1095q0 -267 -169 -383l-49 45q47 63 47 219q0 65 -13 168h158q26 0 26 -49z" />
<glyph unicode="#" horiz-adv-x="832" d="M777 685h-127l-42 -204h133v-127h-160l-45 -238h-117l48 238h-166l-45 -238h-117l45 238h-129v127h153l40 204h-133v125h156l56 275h115l-55 -275h166l54 275h114l-56 -275h112v-125zM531 685h-166l-40 -204h166z" />
<glyph unicode="$" horiz-adv-x="651" d="M588 409q0 -139 -62 -245q-27 -46 -77 -88q-57 -49 -103 -54v-143l-80 -38v177q-136 0 -237 69l29 192h42q17 -49 65 -80t101 -31v298q-248 58 -248 212q0 128 62 228q69 111 186 134v130l80 36v-152q69 -1 202 -39l-40 -207h-40q-16 33 -50 58q-37 27 -72 28v-278 q127 -31 168 -57q74 -47 74 -150zM266 630v264q-56 0 -107 -38q-55 -41 -55 -97q0 -77 162 -129zM506 327q0 44 -60 83q-49 31 -100 42v-277q57 0 108.5 48.5t51.5 103.5z" />
<glyph unicode="%" horiz-adv-x="1099" d="M531 819q0 -103 -71 -186q-74 -87 -176 -87q-86 0 -143 92q-50 80 -50 170q0 159 131 228q58 30 100 30q95 0 155 -78q54 -71 54 -169zM970 1019l-724 -1028h-124v32l724 1026h124v-30zM1008 248q0 -103 -71 -186q-74 -87 -176 -87q-85 0 -143 92q-50 80 -50 171 q0 158 131 227q58 30 100 30q95 0 155 -77q54 -71 54 -170zM410 747q0 73 -37 139q-44 79 -111 79q-60 0 -60 -84q0 -75 35 -143q42 -82 110 -82q63 0 63 91zM887 176q0 73 -37 140q-44 78 -111 78q-60 0 -60 -84q0 -74 35 -142q42 -83 110 -83q63 0 63 91z" />
<glyph unicode="&#x26;" horiz-adv-x="1319" d="M1156 175q0 -175 -177 -175h-519v514h46l53 -106v-245h389q97 0 97 98v576h41l70 -133v-529zM841 384l-54 -106h-42v288q0 106 -96 106h-380v-572l-67 -100h-38v834h519q158 0 158 -174v-276z" />
<glyph unicode="'" horiz-adv-x="382" d="M291 1095q0 -267 -169 -383l-49 45q47 63 47 219q0 65 -13 168h158q26 0 26 -49z" />
<glyph unicode="(" horiz-adv-x="554" d="M481 -143l-110 -78h-22q-276 359 -276 762t276 762h22l110 -78q-257 -276 -257 -684q0 -185 66 -365q69 -187 191 -319z" />
<glyph unicode=")" horiz-adv-x="554" d="M463 541q0 -403 -277 -762h-21l-110 60q120 130 190 328q67 188 67 374q0 408 -257 684l110 78h21q277 -359 277 -762z" />
<glyph unicode="*" horiz-adv-x="806" d="M734 990l-272 -25l202 -188l-147 -101l-110 235l-119 -233l-149 100l202 187l-268 27l55 168l238 -125l-50 249l176 -2l-45 -247l228 118z" />
<glyph unicode="+" horiz-adv-x="713" d="M617 422h-201v-205h-119v205h-201v118h201v208h119v-208h201v-118z" />
<glyph unicode="," horiz-adv-x="427" d="M309 194q0 -267 -169 -382l-49 44q47 63 47 220q0 65 -12 167h157q26 0 26 -49z" />
<glyph unicode="-" horiz-adv-x="713" d="M608 413h-503v136h503v-136z" />
<glyph unicode="." horiz-adv-x="435" d="M335 100l-126 -135h-28l-126 135v27l126 131h28l126 -131v-27z" />
<glyph unicode="/" horiz-adv-x="659" d="M659 1275l-569 -1381h-110l565 1381h114z" />
<glyph unicode="0" d="M771 600q0 -149 -48 -288q-56 -158 -157 -241q-114 -93 -202 -93q-159 0 -248 189q-71 149 -71 326q0 361 217 516q96 70 165 70q181 0 271 -157q73 -128 73 -322zM623 409q0 86 -16 188q-18 119 -83 213q-79 114 -188 114q-147 0 -147 -234q0 -186 52 -332 q73 -205 224 -205q158 0 158 256z" />
<glyph unicode="1" d="M625 1057q-37 -181 -36 -206l18 -851h-173l36 782q0 11 -3 11q-2 0 -4 -2l-135 -123q-81 -74 -145 -113l-14 14l36 244q77 43 182 122q112 83 165 142z" />
<glyph unicode="2" d="M737 195l-48 -195h-627l38 144l274 262q188 200 188 309q0 70 -70 113q-61 38 -136 38q-94 0 -135 -14.5t-119 -74.5l-13 23l51 213q92 60 282 60q127 0 211 -63q93 -70 93 -193q0 -232 -426 -622h437z" />
<glyph unicode="3" d="M746 351q0 -171 -163 -276q-141 -91 -321 -91q-153 0 -227 61l72 195q103 -58 242 -58q101 0 178 28q108 40 108 123q0 81 -112 123q-82 31 -179 31q-58 0 -149 -12l60 185q272 27 272 111q0 51 -81 76q-58 19 -126 19q-122 0 -191 -49l-22 21l64 201q60 36 189 36 q112 0 197 -42q107 -54 107 -154q0 -130 -138 -233q220 -80 220 -295z" />
<glyph unicode="4" d="M784 409l-53 -196h-89v-213h-144l8 213h-473q38 309 187 520q197 279 440 355l-18 -679h142zM517 811q-50 -10 -121 -57.5t-101 -89.5q-77 -107 -77 -255h288z" />
<glyph unicode="5" d="M733 369q0 -189 -121 -290q-113 -95 -306 -95q-52 0 -133 18q-87 20 -126 43l73 195q103 -58 255 -58q88 0 162 36q92 45 92 124q0 82 -109 120q-76 25 -182 25q-135 0 -245 -30l54 591h551l-52 -202h-399l-18 -182q78 4 200 4q132 0 218 -84t86 -215z" />
<glyph unicode="6" d="M760 378q0 -135 -124.5 -264.5t-258.5 -129.5q-138 0 -229.5 88.5t-91.5 225.5q0 105 102 291l251 460h193l-262 -383q60 13 123 13q125 0 211 -88t86 -213zM618 293q0 132 -147 200q-35 16 -137 16q-48 0 -72 -3q-66 -59 -66 -147q0 -89 95 -147q83 -52 178 -52 q149 0 149 133z" />
<glyph unicode="7" d="M782 1004l-142 -251q-233 -408 -233 -677q0 -39 4 -76h-173q0 129 19 208q16 68 70 192q81 184 246 435h-538l61 213h646z" />
<glyph unicode="8" d="M764 322q0 -144 -127 -246q-119 -96 -266 -96q-131 0 -222 77q-96 81 -96 210q0 177 182 315q-113 80 -113 189q0 130 105 224q102 91 233 91q95 0 169 -59q80 -63 80 -156q0 -126 -151 -262q206 -115 206 -287zM580 764q0 76 -55 122q-51 43 -128 43q-142 0 -142 -101 q0 -50 100 -113q72 -45 142 -70q83 47 83 119zM620 258q0 80 -129 173q-98 71 -201 110q-92 -69 -92 -175q0 -88 87 -149q78 -55 170 -55q165 0 165 96z" />
<glyph unicode="9" d="M760 755q0 -85 -102 -293l-226 -462h-187l250 387q-47 -6 -94 -6q-144 0 -235 55q-110 67 -110 202q0 143 132 301q105 127 252 127q138 0 229 -87.5t91 -223.5zM621 678q0 97 -91 159q-81 56 -182 56q-152 0 -152 -142q0 -114 128 -170q94 -41 216 -41h11l14 1 q56 71 56 137z" />
<glyph unicode=":" horiz-adv-x="483" d="M350 749l-127 -135h-28l-126 135v27l126 131h28l127 -131v-27zM350 100l-127 -135h-28l-126 135v27l126 131h28l127 -131v-27z" />
<glyph unicode=";" horiz-adv-x="460" d="M350 749l-127 -135h-28l-126 135v27l126 131h28l127 -131v-27zM304 194q0 -267 -168 -382l-50 44q47 63 47 220q0 65 -12 167h158q25 0 25 -49z" />
<glyph unicode="&#x3c;" horiz-adv-x="713" d="M576 119l-439 282v175l439 310v-162l-350 -226l350 -224v-155z" />
<glyph unicode="=" horiz-adv-x="713" d="M618 570h-523v137h523v-137zM618 258h-523v137h523v-137z" />
<glyph unicode="&#x3e;" horiz-adv-x="713" d="M576 401l-439 -282v155l350 224l-350 226v162l439 -310v-175z" />
<glyph unicode="?" horiz-adv-x="675" d="M530 916q0 -25 -9 -51l-50 -158q-9 -30 -136 -143q-114 -102 -114 -187l-34 -9q-44 50 -44 145q0 93 71 144q19 14 131 63q71 31 71 74q0 55 -180.5 110t-180.5 114q0 15 74 218l71 14q0 -79 85 -130l159 -77q86 -50 86 -127zM350 113l-127 -135h-28l-126 135v27l126 131 h28l127 -131v-27z" />
<glyph unicode="@" horiz-adv-x="1886" d="M1844 156q-93 -284 -329.5 -449t-537.5 -165q-241 0 -440 111q-205 114 -318.5 320.5t-113.5 454.5q0 264 122 489q125 232 349 360.5t475 128.5q202 0 362 -79q176 -87 264 -254t88 -352q0 -168 -66 -330q-71 -174 -193 -272q-129 -104 -293 -104q-153 0 -181 121 q16 64 56 104q-246 -226 -404 -226q-85 0 -136 77q-45 67 -45 156q0 156 104 345q86 156 217 296q107 73 177 73q30 0 53 -13q140 0 202 -84l8 96l136 -24l-101 -393q-72 -280 -72 -338q0 -19 5 -29q-6 -20 -6 -33q0 -28 25 -28q17 0 45 13q20 -9 40 -9q74 0 152 121 q92 40 144 157q73 164 73 342q-33 141 -105 309q-91 134 -245 212q-150 76 -315 76q-232 -64 -392 -160q-223 -76 -264 -272q-157 -216 -157 -411q0 -35 5 -69q-1 -16 -1 -32q0 -219 105 -376q61 -217 272 -256q140 -84 360 -112q55 -7 101 -7q231 0 395 151 q211 105 256 400zM1182 773q0 60 -32 100q-17 22 -44 22q-28 0 -66 -23h-8q-75 0 -128 -136q-111 -13 -192 -211q-59 -145 -59 -232q19 -29 30 -95q29 24 49 24q23 0 36 -30q112 56 248 192q40 88 120 144q46 146 46 245z" />
<glyph unicode="A" horiz-adv-x="1169" d="M1130 0q-14 -19 -49 -19q-39 0 -79 22.5t-52 56.5l-107 295h-515l-94 -280q-32 -97 -127 -97q-38 0 -65 22l439 1147q47 121 136 121h4zM821 438l-245 675l-229 -675h474z" />
<glyph unicode="B" horiz-adv-x="1017" d="M924 426q0 -204 -132 -327q-128 -120 -331 -120q-191 0 -318 71v966q0 117 90 185q87 67 230 67q138 0 228 -66q92 -70 92 -183q0 -138 -155 -190q115 -42 192 -126q104 -114 104 -277zM634 1025q0 176 -188 176q-74 0 -116 -45.5t-42 -111.5v-183h151q81 0 138 45.5 t57 118.5zM765 411q0 194 -115 291q-93 79 -234 79l-129 -1v-698q73 -34 172 -34q137 0 223 105q83 101 83 258z" />
<glyph unicode="C" horiz-adv-x="1111" d="M1019 111q-54 -52 -158 -91q-108 -41 -200 -41q-231 0 -385 171q-163 181 -163 477q0 297 155 474q147 167 374 167q106 0 208.5 -40.5t152.5 -103.5q-22 -15 -44 -15q-26 0 -59 22q-94 60 -252 60q-155 0 -264 -144q-119 -158 -119 -420q0 -264 125 -422 q114 -144 280 -144q145 0 226 48q47 27 74 27t49 -25z" />
<glyph unicode="D" horiz-adv-x="1217" d="M1125 625q0 -327 -218 -504q-175 -142 -403 -142q-87 0 -201 22q-109 20 -160 45v1143q37 26 141 52q117 30 223 30q241 0 415 -154q203 -178 203 -492zM973 625q0 261 -143 420q-133 148 -323 148q-53 0 -123 -14q-74 -14 -96 -32v-1059q70 -38 207 -38q186 0 317 125 q161 155 161 450z" />
<glyph unicode="E" horiz-adv-x="935" d="M843 0h-593q-55 0 -83 50q-24 41 -24 99v954q0 55 32 97t73 42h595q0 -82 -108 -82h-449v-299h337q0 -82 -107 -82h-230v-696h449q108 0 108 -83z" />
<glyph unicode="F" horiz-adv-x="884" d="M843 1242q0 -82 -108 -82h-448v-299h336q0 -82 -107 -82h-229v-655q0 -61 -39 -104q-36 -39 -92 -39q-6 0 -13 1v1121q0 55 32 97t73 42h595z" />
<glyph unicode="G" horiz-adv-x="1227" d="M1084 109q-57 -56 -179 -95q-111 -35 -195 -35q-251 0 -418 164q-179 176 -179 469q0 311 161 491q149 166 379 166q111 0 229 -40q126 -42 175 -104q-22 -15 -44 -15q-26 0 -60 22t-127.5 41t-166.5 19q-161 0 -269 -136q-125 -157 -125 -444q0 -267 130 -418 q121 -141 315 -141q117 0 231 91v635h-202q-107 0 -107 82h337q42 0 78.5 -42.5t36.5 -96.5v-613z" />
<glyph unicode="H" horiz-adv-x="1169" d="M1026 -21q-57 0 -99 39q-45 42 -45 106v655h-595v-655q0 -61 -39 -104q-36 -39 -92 -39q-6 0 -13 1v1287q144 0 144 -114v-294h595v294q0 55 43 91q38 33 87 33q7 0 14 -1v-1299z" />
<glyph unicode="I" horiz-adv-x="728" d="M656 1242q0 -82 -107 -82h-114v-1077h114q107 0 107 -83h-584q0 83 107 83h114l1 1077h-114q-108 0 -108 82h584z" />
<glyph unicode="J" horiz-adv-x="422" d="M279 201q0 -195 -94 -300q-80 -89 -201 -89h-5q-66 1 -102 24q9 40 37 45q29 -1 57 -3q59 1 108 66q56 76 56 199v959q0 75 37 123q35 45 88 45q9 0 19 -1v-1068z" />
<glyph unicode="K" horiz-adv-x="1169" d="M913 1269q41 -17 41 -71q0 -69 -43 -100l2 2h-1q-8 0 -441 -312l261 -387q168 -243 328 -387q-30 -32 -84 -32q-99 0 -174 89q-61 73 -198 305l-211 361l-105 -74v-525q0 -61 -30 -104q-39 -55 -115 -55v1290q145 0 145 -119v-386z" />
<glyph unicode="L" horiz-adv-x="836" d="M795 0h-547q-40 0 -72.5 47t-32.5 103v1120q10 1 19 1q53 0 86 -29q38 -34 38 -93v-1066h401q108 0 108 -83z" />
<glyph unicode="M" horiz-adv-x="1582" d="M1498 -21q-17 -3 -34 -3q-137 0 -164 132l-195 979l-237 -384q-26 -43 -77 -43q-50 0 -77 43l-235 378l-199 -973q-27 -132 -162 -132q-18 0 -36 3l298 1157q32 125 111 131l300 -495l300 493q86 -12 112 -115z" />
<glyph unicode="N" horiz-adv-x="1169" d="M1026 37q-45 -62 -129 -62q-79 0 -110 68l-498 1112v-1042q0 -64 -53 -104q-41 -30 -83 -30h-10v1239q37 55 116 55q88 0 123 -78l501 -1113v1075q0 52 46 85q41 30 97 30v-1235z" />
<glyph unicode="O" horiz-adv-x="1517" d="M1414 627q0 -277 -179 -462.5t-438 -185.5h-67q-259 0 -438 185.5t-179 462.5q0 282 178 463q175 177 439 177h67q264 0 438 -177q179 -181 179 -463zM1262 627q0 250 -153 411q-144 151 -346 151t-346 -151q-152 -161 -152 -411q0 -245 150 -408q145 -155 348 -155 t348 155q151 163 151 408z" />
<glyph unicode="P" horiz-adv-x="1017" d="M924 818q0 -225 -163 -364q-137 -117 -298 -117q-109 0 -175 39v-266q0 -59 -40 -98q-36 -36 -84 -36q-11 0 -21 2v1219q127 71 318 71q203 0 331 -121q132 -125 132 -329zM775 823q0 156 -88 265q-91 111 -228 111q-100 0 -172 -34v-707q62 -51 164 -51q114 0 210 102 q114 120 114 314z" />
<glyph unicode="Q" horiz-adv-x="1530" d="M1417 -35l-203 171q-162 -157 -417 -157h-67q-259 0 -438 185.5t-179 462.5q0 282 178 463q175 177 439 177h67q264 0 438 -177q179 -181 179 -463q0 -231 -130 -410l81 -68q73 -62 73 -130q0 -31 -21 -54zM1262 627q0 250 -153 411q-144 151 -346 151t-346 -151 q-152 -161 -152 -411q0 -245 150 -408q145 -155 348 -155q218 0 356 152l-87 74q-38 32 -38 65q0 44 46 44q30 0 61 -27l83 -70q78 129 78 325z" />
<glyph unicode="R" horiz-adv-x="1046" d="M954 6q-33 -29 -90 -29q-85 0 -126 48l-215 319q-36 -7 -60 -7q-109 0 -175 39v-266q0 -59 -40 -98q-36 -36 -84 -36q-11 0 -21 2v1219q127 71 318 71q203 0 331 -121q132 -125 132 -329q0 -162 -88 -283q-75 -104 -197 -158zM775 823q0 156 -88 265q-91 111 -228 111 q-99 0 -172 -34v-707q62 -51 164 -51q114 0 210 102q114 120 114 314z" />
<glyph unicode="S" horiz-adv-x="878" d="M796 311q0 -156 -117 -248q-105 -84 -256 -84q-96 0 -190 43q-108 49 -161 134q30 11 53 11q27 0 89 -42q101 -68 199 -68q78 0 149 69q78 76 78 179q0 222 -206 311l-86 37q-117 50 -190.5 143t-73.5 186q0 120 99 204q95 82 223 82q247 0 360 -193q-26 -11 -48 -11 q-41 0 -114 64q-56 49 -163 57q-10 1 -19 1q-78 0 -128 -52q-56 -59 -56 -146q0 -80 56 -154q61 -80 170 -127l72 -30q260 -111 260 -366z" />
<glyph unicode="T" horiz-adv-x="916" d="M855 1242q0 -82 -108 -82h-213v-1061q0 -58 -42 -93q-36 -29 -83 -29q-8 0 -17 1l1 1182h-224q-108 0 -108 82h794z" />
<glyph unicode="U" horiz-adv-x="1169" d="M1026 502q0 -523 -442 -523q-441 0 -441 493v799q11 3 22 3q47 0 85 -39.5t38 -96.5v-702q0 -185 86 -291q80 -100 211 -100q133 0 215 111.5t82 304.5v666q0 70 39 109q35 34 87 34q9 0 18 -1v-767z" />
<glyph unicode="V" horiz-adv-x="1105" d="M1033 1263l-313 -1190q-30 -114 -120 -114q-18 0 -37 6l-491 1292q23 16 56 16q109 0 146 -116l346 -1066l223 1043q29 138 135 138q26 0 55 -9z" />
<glyph unicode="W" horiz-adv-x="1566" d="M1495 1262l-302 -1182q-24 -94 -105 -101l-286 466l-314 -466q-84 12 -112 117l-304 1170q24 7 47 7q119 0 145 -129l198 -1000l259 368q35 49 83 49q49 0 82 -53l224 -364l187 989q12 63 55 99.5t98 36.5q23 0 45 -7z" />
<glyph unicode="X" horiz-adv-x="1051" d="M944 1269q23 -20 23 -59q0 -55 -41 -114l-319 -458l348 -456q29 -39 29 -90q0 -80 -52 -113l-424 551l-377 -551q-30 16 -30 54q0 48 44 112l314 455l-356 478q-26 35 -26 78q0 69 55 113l424 -562z" />
<glyph unicode="Y" horiz-adv-x="839" d="M744 1269q23 -20 23 -59q0 -54 -41 -114l-232 -342v-612q0 -64 -35 -113q-37 -52 -91 -52q-8 0 -17 2l1 754l-249 331q-31 42 -31 98q0 70 46 107l324 -432z" />
<glyph unicode="Z" horiz-adv-x="872" d="M800 0h-672q-52 26 -52 74q0 44 68 163l519 923h-484q-107 0 -107 82h673q52 -25 52 -86q0 -43 -24 -84l-566 -989h486q107 0 107 -83z" />
<glyph unicode="[" horiz-adv-x="637" d="M555 -261h-353q-38 0 -38 41v1449q0 41 38 41h353v-80q-12 0 -45 2t-52 2q-122 0 -122 -86v-1208q0 -86 122 -86q19 0 52 2t45 2v-79z" />
<glyph unicode="\" horiz-adv-x="801" d="M740 -150q0 -13 -11 -13q-15 0 -66 24q-58 28 -69 51l-574 1227q-3 8 -3 14q0 13 13 13q20 0 68 -28q52 -31 64 -57l575 -1218q3 -7 3 -13z" />
<glyph unicode="]" horiz-adv-x="637" d="M473 -220q0 -41 -38 -41h-353v79q12 0 45 -2t51 -2q122 0 122 86v1208q0 86 -122 86q-18 0 -51 -2t-45 -2v80h353q38 0 38 -41v-1449z" />
<glyph unicode="^" horiz-adv-x="788" d="M768 436h-160l-208 508l-232 -508h-141l317 701h107z" />
<glyph unicode="_" horiz-adv-x="1032" d="M1042 -258h-1042l-8 130h1044z" />
<glyph unicode="`" horiz-adv-x="682" d="M447 1045l-55 -9l-274 354h223z" />
<glyph unicode="a" horiz-adv-x="895" d="M61 222q4 -119 105 -186q88 -57 212 -57q191 0 287 146q19 -63 90 -145q68 30 68 102q0 28 -13 59q-28 65 -28 162v274q0 312 -332 312q-203 0 -360 -115q20 -38 62 -38q28 0 58 19q95 60 212 60q119 0 179 -75q51 -63 51 -164v-289v-5q0 -104 -76 -168q-72 -59 -175 -59 q-75 0 -136 36q-75 44 -80 123v13q0 104 91 170q65 47 200 85q49 14 49 76v12q-201 -52 -286 -97q-178 -92 -178 -243v-8z" />
<glyph unicode="b" horiz-adv-x="920" d="M838 443q0 -186 -91 -318q-100 -146 -265 -146q-149 0 -250 164q0 -79 -38 -125q-34 -40 -78 -40q-7 0 -14 1v1290q136 0 136 -168v-375q36 69 102 114q71 49 152 49q142 0 240 -115q106 -125 106 -331zM688 455q0 153 -60 252.5t-162 99.5q-94 0 -162.5 -90t-68.5 -217 v-123q0 -130 62 -221q62 -95 155 -95q111 0 179 136q57 115 57 258z" />
<glyph unicode="c" horiz-adv-x="776" d="M725 783q-16 -28 -55 -28q-21 0 -39 10q-88 52 -147 52q-112 0 -185 -108.5t-73 -271.5q0 -167 68 -274q71 -111 190 -111q65 0 133 36q31 16 54 16q33 0 50 -32q-109 -93 -245 -93q-173 0 -283.5 128.5t-110.5 329.5q0 206 111 331q109 121 283 121q118 0 249 -106z" />
<glyph unicode="d" horiz-adv-x="920" d="M818 -21q-7 -1 -14 -1q-44 0 -76 39q-40 47 -40 126q-101 -164 -250 -164q-165 0 -265 146q-91 132 -91 318q0 206 106 331q98 115 240 115q81 0 153 -49q65 -45 101 -114v388q0 71 41 114q38 41 95 41v-1290zM685 377v123q0 127 -68.5 217t-161.5 90q-103 0 -163 -99.5 t-60 -252.5q0 -143 57 -259q68 -137 179 -137q93 0 156 96q61 92 61 222z" />
<glyph unicode="e" horiz-adv-x="923" d="M421 257q0 69 58 85q211 55 211 242q0 115 -68 176q-62 57 -169 57q-108 0 -171 -116q-58 -107 -58 -273q0 -151 59 -252q74 -124 220 -124q97 0 182 56q36 24 70 24q33 0 53 -27q-58 -53 -149.5 -89.5t-171.5 -36.5q-191 0 -302 130q-103 123 -103 319q0 192 100 321 q109 140 292 140q166 0 264 -83q93 -80 93 -206q0 -153 -134 -249q-115 -83 -276 -94z" />
<glyph unicode="f" horiz-adv-x="515" d="M518 1227q-8 -39 -41 -39q-11 0 -32 5q-24 6 -32 7q-5 1 -10 1q-38 0 -72 -36q-38 -40 -38 -100v-204h137q3 -7 3 -14q0 -22 -19.5 -41t-41.5 -19h-79v-654q0 -73 -33.5 -114.5t-81.5 -41.5q-9 0 -18 2v808h-114q-5 10 -5 21q0 53 62 53h57v147q0 106 65.5 182t167.5 76 q12 0 24 -1q48 -5 101 -38z" />
<glyph unicode="g" horiz-adv-x="919" d="M818 888v-892q0 -166 -113 -267q-103 -92 -250 -92q-52 0 -101 14q-123 32 -210 134q23 25 50 25t66 -28q50 -35 97.5 -48t90.5 -13q103 0 167 66q67 70 67 193v148q-35 -66 -99.5 -107.5t-137.5 -41.5q-145 0 -250 123q-113 131 -113 337q0 182 98 310q104 138 271 138 q140 0 237 -159q6 90 35.5 125t94.5 35zM682 323v200q0 119 -64.5 202t-150.5 83q-120 0 -185 -129q-53 -106 -53 -251q0 -153 65 -258q67 -109 171 -109q71 0 139 68q78 79 78 194z" />
<glyph unicode="h" horiz-adv-x="938" d="M836 -21q-56 0 -95.5 40t-39.5 98v456q0 110 -62 174q-58 60 -148 60q-93 0 -174.5 -86.5t-81.5 -190.5v-406q0 -146 -116 -146q-8 0 -17 1v1290q11 2 22 2q49 0 81.5 -34.5t32.5 -83.5l1 -442q108 178 293 178q137 0 218 -80q86 -85 86 -243v-587z" />
<glyph unicode="i" horiz-adv-x="380" d="M278 1086q0 -37 -26 -62.5t-62 -25.5t-62 25.5t-26 62.5q0 36 26 61.5t62 25.5t62 -25.5t26 -61.5zM256 -21q-135 0 -135 163v665q0 82 67 82q68 0 68 -82v-828z" />
<glyph unicode="j" horiz-adv-x="379" d="M277 -76q0 -113 -72 -199q-74 -88 -180 -88h-5q-66 1 -102 24q9 40 37 45q29 -1 57 -3q51 1 91 51.5t40 112.5v883q0 138 105 138q14 0 29 -3v-961z" />
<glyph unicode="k" horiz-adv-x="864" d="M806 14q-33 -36 -81 -36q-77 0 -146 83q-103 123 -216 361l-126 -100v-184q0 -159 -135 -159v1290q59 0 97 -38t38 -97v-687l491 442q46 -19 46 -81q0 -61 -36 -89l-309 -247q237 -350 377 -458z" />
<glyph unicode="l" horiz-adv-x="342" d="M239 -21v1122q0 168 -137 168v-1133q0 -157 137 -157z" />
<glyph unicode="m" horiz-adv-x="1344" d="M1241 -21q-63 0 -98.5 38t-35.5 100l-1 495q0 195 -164 195q-61 0 -122 -57.5t-79 -123.5v-505q0 -142 -134 -142v640q0 188 -165 188q-72 0 -139.5 -74.5t-67.5 -144.5v-467q0 -140 -133 -144v912q12 2 22 2q50 0 82 -36.5t32 -95.5q113 130 260 130q183 0 231 -165 q111 165 269 165q110 0 176.5 -69t66.5 -180v-661z" />
<glyph unicode="n" horiz-adv-x="938" d="M836 -21q-61 0 -98 39.5t-37 102.5v452q0 110 -62 174q-58 60 -148 60q-93 0 -174.5 -86.5t-81.5 -190.5v-409q0 -142 -133 -142v910q11 2 22 2q49 0 81.5 -34.5t32.5 -83.5l1 -62q108 178 293 178q137 0 218 -80q86 -85 86 -243v-587z" />
<glyph unicode="o" horiz-adv-x="1002" d="M920 433q0 -202 -126 -331q-121 -123 -293 -123q-184 0 -303 130q-116 127 -116 318q0 188 104 317q116 145 313 145q202 0 318 -141q103 -127 103 -315zM774 428q0 160 -66 268q-75 125 -212 125q-135 0 -208 -127q-62 -107 -62 -264q0 -170 74.5 -275t198.5 -105 q114 0 194.5 108t80.5 270z" />
<glyph unicode="p" horiz-adv-x="915" d="M833 441q0 -211 -120 -344q-106 -118 -244 -118q-153 0 -236 160v-333q0 -168 -136 -168v1250h8q126 0 126 -157q98 158 237 158q166 0 269 -138q96 -127 96 -310zM686 430q0 166 -54 266q-63 115 -186 115q-91 0 -157 -103q-60 -94 -60 -206v-159q0 -119 74 -205 q67 -79 147 -79q96 0 164 100q72 106 72 271z" />
<glyph unicode="q" horiz-adv-x="920" d="M818 -363q-66 0 -103 41q-33 37 -33 93v371q-36 -69 -101 -114q-72 -49 -153 -49q-141 0 -240 116q-106 126 -106 332q0 186 91 317q100 145 265 145q150 0 250 -162v11q0 74 38 116q31 35 75 35q8 0 17 -1v-1251zM685 368v125q0 130 -61 221q-63 95 -156 95 q-111 0 -179 -136q-57 -115 -57 -258q0 -153 59 -252q61 -102 164 -102q93 0 161.5 89.5t68.5 217.5z" />
<glyph unicode="r" horiz-adv-x="544" d="M518 888q6 -11 6 -23q0 -23 -20 -43q-17 -16 -36 -19q-88 -15 -139 -96q-47 -74 -47 -172v-424q0 -132 -138 -132v563q0 115 -16 180q-5 19 -5 38q0 50 30 88q27 35 62 40q51 -93 51 -164q30 74 100 120q67 44 142 44h10z" />
<glyph unicode="s" horiz-adv-x="846" d="M750 211q-6 -115 -115 -178q-93 -54 -224 -54q-105 0 -192 42q-96 47 -127 127q19 5 35 5q25 0 47 -15l34 -28q74 -51 180 -54h12q76 0 133 36q61 40 67 108q1 12 1 24q0 68 -40 119q-44 56 -124 76l-96 25q-246 61 -246 213q0 12 2 24q14 105 113 161q81 47 189 47 q109 0 197 -52q82 -48 123 -127q-16 -6 -30 -6q-21 0 -102 51q-73 47 -167 51h-14q-77 0 -122 -42q-44 -40 -44 -103q0 -109 160 -149l98 -24q111 -28 179 -95q73 -72 73 -169v-13z" />
<glyph unicode="t" horiz-adv-x="522" d="M498 17q-53 -33 -102 -37q-12 -1 -24 -1q-102 0 -167.5 76t-65.5 182v555h-57q-62 0 -62 53q0 11 5 21h114v403q10 3 21 3q43 0 76 -42q36 -46 36 -115v-249h80q22 0 41.5 -19t19.5 -41q0 -8 -3 -14h-138v-613q0 -59 38 -99q33 -36 72 -36q5 0 11 1q7 1 32 7q21 5 32 5 q32 0 41 -40z" />
<glyph unicode="u" horiz-adv-x="907" d="M805 343q0 -170 -101 -270q-95 -94 -243 -94q-137 0 -245 103q-114 108 -114 261v546q11 3 22 3q44 0 78.5 -39.5t34.5 -96.5v-439q0 -113 68.5 -192.5t156.5 -79.5q94 0 154 80q56 76 56 186v432q0 143 115 143q9 0 18 -1v-542z" />
<glyph unicode="v" horiz-adv-x="818" d="M756 885l-282 -906q-17 -4 -34 -4q-96 0 -135 124l-244 789q18 3 34 3q102 0 131 -109l183 -683l167 658q34 133 135 133q21 0 45 -5z" />
<glyph unicode="w" horiz-adv-x="1380" d="M1319 888l-244 -789q-38 -124 -137 -124q-17 0 -34 4l-214 517l-214 -517q-17 -4 -34 -4q-98 0 -137 124l-244 789q18 3 34 3q104 0 133 -109l181 -683l183 418q37 86 96 86q63 0 100 -86l183 -418l178 683q28 109 136 109q16 0 34 -3z" />
<glyph unicode="x" horiz-adv-x="741" d="M671 888q24 -20 24 -61q0 -57 -41 -111l-205 -267l218 -281q33 -43 33 -95q0 -66 -45 -94l-295 374l-288 -374q-31 17 -31 54q0 48 45 106l217 279l-222 282q-33 42 -33 92q0 60 45 96l300 -376z" />
<glyph unicode="y" horiz-adv-x="838" d="M777 876l-169 -616q-87 -317 -177 -451q-106 -157 -285 -186q-1 7 -1 13q0 64 82 89q37 12 85.5 76.5t72.5 140.5l-324 946q15 2 29 2q116 0 154 -130l191 -670q13 48 167 664q34 135 120 135q25 0 55 -13z" />
<glyph unicode="z" horiz-adv-x="776" d="M715 0h-602q-47 41 -47 94q0 52 45 107l485 588h-427q-108 0 -108 72h607q46 -31 46 -90q0 -47 -28 -80l-510 -618h431q108 0 108 -73z" />
<glyph unicode="{" horiz-adv-x="695" d="M613 -266q-189 0 -304 60q-119 62 -119 204v313q0 79 -154 157v80q154 90 154 183v284q0 160 142 221q89 39 281 46v-76l-83 -14q-46 -10 -80 -29q-91 -54 -91 -209q0 -26 3 -78.5t3 -78.5q0 -143 -76 -197q-41 -29 -178 -90v-5q127 -50 175 -89q80 -65 80 -173v-235 q0 -110 98 -164q32 -17 149 -34v-76z" />
<glyph unicode="|" horiz-adv-x="460" d="M296 -261h-132v1531h132v-1531z" />
<glyph unicode="}" horiz-adv-x="695" d="M659 468q-154 -78 -154 -157v-313q0 -142 -119 -204q-115 -60 -304 -60v76q54 6 149 34q98 54 98 164v235q0 108 80 173q48 39 175 89v5q-61 25 -178 90q-75 54 -75 197q0 26 2.5 78.5t2.5 78.5q0 155 -91 209q-31 18 -163 43v76q192 -7 281 -46q142 -61 142 -221v-284 q0 -93 154 -183v-80z" />
<glyph unicode="~" horiz-adv-x="1112" d="M1081 645q-135 -237 -311 -237q-68 0 -134 29l-104 46q-121 70 -202 70q-70 0 -127 -51q-39 -35 -107 -131l-76 100q123 217 305 217q74 0 240 -76q171 -58 209 -58q116 0 209 155z" />
<glyph unicode="&#xa1;" horiz-adv-x="623" d="M340 822l-115 -119l-119 121l117 119zM328 107q-3 -138 -45 -274l-177 211q78 220 78 430v86q144 -161 144 -428v-25z" />
<glyph unicode="&#xa2;" horiz-adv-x="1024" d="M900 349q-47 -188 -163 -292q-90 -81 -221 -81q-81 0 -162 35l-142 -390h-70l155 427q-81 76 -117 154q-51 110 -51 250q0 253 157 390q121 105 273 105q20 0 61 -4l140 383h72l-145 -402q101 -45 138 -87q48 -54 48 -115q0 -85 -94 -85q-55 0 -86 38q-18 22 -26 82 q-4 31 -17 65l-228 -631q87 -61 163 -61q129 0 202 86q32 38 83 146zM593 865q-28 12 -60 12q-102 0 -162 -74q-82 -100 -82 -268q0 -137 81 -285z" />
<glyph unicode="&#xa3;" horiz-adv-x="907" d="M799 176l-62 -176h-671l69 176h60q20 113 20 244q0 20 -1 60.5t-1 60.5h-109l56 147h47q-2 19 -2 49v21q3 169 118.5 293.5t282.5 126.5h3q105 0 186 -66l-95 -147q-106 67 -196 67q-142 0 -142 -160q0 -32 9 -182h168l-58 -147h-106q-8 -247 -94 -367h518z" />
<glyph unicode="&#xa5;" horiz-adv-x="1024" d="M1023 352h-426v-108q0 -113 11 -143q22 -60 119 -60h41v-41h-515v41h32q118 0 137 83q4 18 4 120v108h-424v73h424v144l-15 36h-409v73h377l-213 496q-31 73 -59 102q-39 41 -105 42v38h442v-38q-121 -8 -121 -62q0 -15 18 -59l214 -519l213 504q21 50 21 75q0 21 -21 41 q-13 13 -64 17q-7 1 -27 3v38h346v-38q-59 0 -87 -23q-43 -36 -86 -132l-214 -485h387v-73h-419l-7 -16v-164h426v-73z" />
<glyph unicode="&#xa8;" horiz-adv-x="682" d="M626 1228q0 -45 -31.5 -76.5t-76.5 -31.5t-77 31.5t-32 76.5t32 77t77 32t76.5 -32t31.5 -77zM274 1228q0 -45 -31.5 -76.5t-76.5 -31.5t-77 31.5t-32 76.5t31.5 77t76.5 32q46 0 77.5 -31.5t31.5 -77.5z" />
<glyph unicode="&#xa9;" horiz-adv-x="1556" d="M1488 678q0 -192 -95 -356q-96 -167 -262 -259q-170 -94 -353 -94q-193 0 -358 95t-258 262.5t-93 351.5q0 193 97.5 360.5t265 258t346.5 90.5q190 0 355 -94q169 -95 260 -259q95 -171 95 -356zM1426 678q0 176 -88 328.5t-242 236t-318 83.5q-172 0 -323 -87 q-154 -88 -237 -236q-87 -156 -87 -325q0 -176 87 -327t239.5 -236t320.5 -85q176 0 327.5 87.5t236 239.5t84.5 321zM1166 431q-139 -203 -383 -203q-197 0 -330 124t-133 320q0 208 147 338q141 125 351 125q70 0 185 -38q24 -8 37 -8q31 0 49 45h40l20 -280h-39 q-71 236 -303 236q-161 0 -246 -118q-75 -104 -75 -271q0 -182 72 -288q85 -125 259 -125q195 0 312 162z" />
<glyph unicode="&#xab;" horiz-adv-x="1024" d="M960 -8h-58l-394 472l394 470h58l-243 -470zM508 -8h-57l-387 472l387 470h57l-244 -470z" />
<glyph unicode="&#xad;" horiz-adv-x="713" d="M608 413h-503v136h503v-136z" />
<glyph unicode="&#xae;" horiz-adv-x="1556" d="M1488 678q0 -192 -95 -356q-96 -167 -262 -259q-170 -94 -353 -94q-193 0 -358 95t-258 262.5t-93 351.5q0 193 97.5 360.5t265 258t346.5 90.5q190 0 355 -94q169 -95 260 -259q95 -171 95 -356zM1426 678q0 176 -88 328.5t-242 236t-318 83.5q-172 0 -323 -87 q-154 -88 -237 -236q-87 -156 -87 -325q0 -176 87 -327t239.5 -236t320.5 -85q176 0 327.5 87.5t236 239.5t84.5 321zM1177 249h-184l-294 405h-76v-309q11 -63 118 -63v-33h-367v33q78 0 97 45q7 17 7 93v523q0 76 -3 87q-13 48 -89 48v36h386q120 0 201 -51 q96 -60 96 -173q0 -164 -222 -222l209 -298q37 -53 68 -73q18 -12 53 -15v-33zM908 879q0 86 -57.5 138.5t-143.5 52.5q-38 0 -84 -16v-357q195 0 256 88q29 42 29 94z" />
<glyph unicode="&#xb0;" horiz-adv-x="797" d="M711 1038q0 -132 -91 -221.5t-223 -89.5q-131 0 -222 90t-91 221q0 132 90.5 223t222.5 91t223 -91t91 -223zM633 1038q0 100 -66 166t-166 66q-99 0 -165 -66.5t-66 -165.5t66 -165t165 -66t165.5 66t66.5 165z" />
<glyph unicode="&#xb4;" horiz-adv-x="682" d="M565 1390l-295 -345h-34l105 345h224z" />
<glyph unicode="&#xb8;" horiz-adv-x="682" d="M496 -209q0 -83 -68 -134q-61 -47 -147 -47q-37 0 -94 7v43q28 -4 48 -4q48 0 84.5 31.5t36.5 78.5q0 32 -24 53t-56 21q-10 0 -26 -2l111 178h60l-50 -79q125 -32 125 -146z" />
<glyph unicode="&#xbb;" horiz-adv-x="1024" d="M960 462l-387 -470h-57l244 470l-244 472h57zM516 462l-394 -470h-58l243 470l-243 472h58z" />
<glyph unicode="&#xbf;" horiz-adv-x="737" d="M479 820l-110 -123l-117 119l110 127zM561 40l-115 -168q-12 -2 -34 -2q-109 0 -177 53q-75 58 -75 164q0 56 70.5 161.5t70.5 137.5q0 50 -43 80l115 125q61 -69 61 -123q0 -73 -59 -152q-43 -58 -43 -118q0 -72 52 -118q49 -45 122 -46q30 -1 55 6z" />
<glyph unicode="&#x2c6;" horiz-adv-x="788" d="M768 436h-160l-208 508l-232 -508h-141l317 701h107z" />
<glyph unicode="&#x2da;" horiz-adv-x="398" d="M313 433q0 -132 -91 -221.5t-223 -89.5q-131 0 -222 90t-91 221q0 132 90.5 223t222.5 91t223 -91t91 -223zM235 433q0 100 -66 166t-166 66q-99 0 -165 -66.5t-66 -165.5t66 -165t165 -66t165.5 66t66.5 165z" />
<glyph unicode="&#x2dc;" horiz-adv-x="398" d="M531 396q-135 -237 -311 -237q-68 0 -134 29l-104 46q-121 70 -202 70q-70 0 -127 -51q-39 -35 -107 -131l-76 100q123 217 305 217q74 0 240 -76q171 -58 209 -58q116 0 209 155z" />
<glyph unicode="&#x5b0;" horiz-adv-x="147" d="M147 -279h-147v146h147v-146zM147 -510h-147v145h147v-145z" />
<glyph unicode="&#x5b1;" horiz-adv-x="651" d="M651 -279h-147v146h147v-146zM651 -510h-147v145h147v-145zM399 -279h-147v146h147v-146zM147 -279h-147v146h147v-146zM274 -510h-147v145h147v-145z" />
<glyph unicode="&#x5b2;" horiz-adv-x="635" d="M635 -279h-148v146h148v-146zM635 -510h-148v145h148v-145zM399 -256h-399v123h399v-123z" />
<glyph unicode="&#x5b3;" horiz-adv-x="635" d="M635 -279h-148v146h148v-146zM635 -510h-148v145h148v-145zM399 -256h-145l8 -207h-121l6 207h-147v123h399v-123z" />
<glyph unicode="&#x5b4;" horiz-adv-x="147" d="M147 -279h-147v146h147v-146z" />
<glyph unicode="&#x5b5;" horiz-adv-x="399" d="M399 -279h-147v146h147v-146zM147 -279h-147v146h147v-146z" />
<glyph unicode="&#x5b6;" horiz-adv-x="399" d="M399 -279h-147v146h147v-146zM147 -279h-147v146h147v-146zM274 -510h-147v145h147v-145z" />
<glyph unicode="&#x5b7;" horiz-adv-x="399" d="M399 -256h-399v123h399v-123z" />
<glyph unicode="&#x5b8;" horiz-adv-x="399" d="M399 -256h-145l8 -207h-121l6 207h-147v123h399v-123z" />
<glyph unicode="&#x5b9;" horiz-adv-x="147" d="M147 1135h-147v145h147v-145z" />
<glyph unicode="&#x5bb;" horiz-adv-x="651" d="M651 -510h-147v145h147v-145zM399 -395h-147v145h147v-145zM147 -279h-147v146h147v-146z" />
<glyph unicode="&#x5bc;" horiz-adv-x="147" d="M147 442h-147v146h147v-146z" />
<glyph unicode="&#x5bd;" horiz-adv-x="92" d="M92 -393h-92v260h92v-260z" />
<glyph unicode="&#x5be;" horiz-adv-x="533" d="M464 996l-46 -208h-358l45 208h359z" />
<glyph unicode="&#x5bf;" horiz-adv-x="1" d="M252 1290q0 -27 -28 -27h-447q-27 0 -27 27v43q0 28 27 28h447q28 0 28 -28v-43z" />
<glyph unicode="&#x5c0;" horiz-adv-x="460" d="M296 -261h-132v1531h132v-1531z" />
<glyph unicode="&#x5c1;" horiz-adv-x="1247" d="M999 1135h-147v145h147v-145z" />
<glyph unicode="&#x5c2;" horiz-adv-x="1247" d="M270 1135h-147v145h147v-145z" />
<glyph unicode="&#x5c3;" horiz-adv-x="483" d="M350 749l-127 -135h-28l-126 135v27l126 131h28l127 -131v-27zM350 100l-127 -135h-28l-126 135v27l126 131h28l127 -131v-27z" />
<glyph unicode="&#x5d0;" horiz-adv-x="1139" d="M1085 173l-73 -194h-42q-63 180 -252 393q-176 200 -354 312q-60 -94 -60 -206q0 -159 103 -305l-74 -173h-309l62 171l112 17q-21 71 -21 206q0 78 35.5 176t85.5 158q-60 41 -207 119q42 103 42 153q0 36 -8 76l75 22q32 -85 114 -143q139 -98 409 -307q51 186 51 330 q0 54 127 54q93 0 157 -12l-49 -227l-60 3q-75 0 -114 -73q-12 -24 -45 -140q173 -166 295 -410z" />
<glyph unicode="&#x5d1;" horiz-adv-x="933" d="M916 209l-69 -209h-804l66 209h577q-21 371 -23 388q-17 126 -79 161q-57 32 -239 32q-32 0 -123.5 -1t-152.5 -1q38 140 38 175q0 53 -20 102l72 28q40 -96 159 -96h195q141 0 220 -82.5t79 -224.5q0 -95 -13 -240l-22 -241h139z" />
<glyph unicode="&#x5d2;" horiz-adv-x="684" d="M648 0h-143q-11 156 -42 359h-14l-128 -208q-44 -71 -64 -93q-39 -43 -95 -58l-127 -35l-15 14l61 221l85 30q72 24 171 123q104 106 104 170q0 177 -27.5 223t-130.5 46q-19 0 -78.5 -1.5t-100.5 -1.5q31 134 31 169q0 49 -22 103l68 28q27 -72 92 -87q18 -4 136 -4 q169 0 169 -168q0 -44 -7 -132t-7 -132q0 -116 30 -284z" />
<glyph unicode="&#x5d3;" horiz-adv-x="967" d="M915 1005l-51 -217q-16 0 -44 2.5t-39 2.5q-50 0 -50 -49q0 -8 23 -744h-180l33 788h-562q39 140 39 175q0 53 -20 102l72 28q39 -96 158 -96h362q115 0 242 26z" />
<glyph unicode="&#x5d4;" horiz-adv-x="1074" d="M977 941q-62 -84 -62 -226q0 -31 31 -715h-179l25 788h-723q38 140 38 175q0 53 -20 102l72 28q40 -96 159 -96h637zM276 0h-174q3 160 26 480l139 33q-8 -81 -8 -210q0 -167 17 -303z" />
<glyph unicode="&#x5d5;" horiz-adv-x="558" d="M464 0h-163q18 634 18 642q0 91 -45 124q-35 25 -115 25q-17 0 -53.5 -1t-56.5 -1q31 136 31 169q0 49 -22 103l68 28q31 -65 74 -81q26 -10 112 -10q130 0 133 -138z" />
<glyph unicode="&#x5d6;" horiz-adv-x="618" d="M537 958l-56 -170q-93 0 -104 -6q-24 -13 -24 -93q0 -29 5 -112l38 -577h-172v513q0 145 46 276h-221q31 134 31 169q0 49 -22 103l68 28q34 -91 125 -91h258z" />
<glyph unicode="&#x5d7;" horiz-adv-x="1129" d="M1027 941q-40 -67 -51 -116q-9 -40 -9 -128q0 -32 3 -75l40 -622h-181l16 788h-557v-788h-173l39 749v13q0 65 -18 143l-41 152l83 21q39 -81 138 -81h685z" />
<glyph unicode="&#x5d8;" horiz-adv-x="1150" d="M1077 729q0 -121 -36.5 -263t-95.5 -245q-100 -175 -328 -214l-268 -45q-79 118 -130 304q-49 178 -49 328q0 104 24 169q4 11 4 15q0 10 -33 12q-15 1 -40 1h-26q-55 -2 -50 -2q28 134 28 171q0 46 -21 102l71 28q21 -73 103 -89q19 -4 147 -4l24 -54q-46 -57 -78 -155 q-31 -94 -31 -171q0 -102 41 -228q42 -129 103 -206q160 13 196 19q113 19 180 72q122 94 122 310q0 211 -198 211q-107 0 -168 -87l-45 32q60 171 83 199q51 65 192 65q279 0 279 -275z" />
<glyph unicode="&#x5d9;" horiz-adv-x="511" d="M438 840q0 -174 -66 -422l-145 -36l-13 15q98 271 98 327q0 65 -81 65h-182q31 134 31 169q0 45 -24 103l70 28q32 -75 116 -89l133 -19q63 -27 63 -141z" />
<glyph unicode="&#x5da;" horiz-adv-x="873" d="M786 769q0 -109 -12 -327t-12 -327q0 -287 20 -421l-171 -50l35 975v5q0 92 -34 128q-36 37 -133 37h-432q37 121 37 169q0 49 -22 103l68 28q33 -91 125 -91h312q219 0 219 -229z" />
<glyph unicode="&#x5db;" horiz-adv-x="909" d="M840 577q0 -118 -27 -240q-32 -145 -90 -221t-64 -81q-36 -35 -94 -35h-505l83 209h430q144 0 144 158q0 198 -26 276q-48 145 -202 145h-401q31 134 31 169q0 49 -22 103l68 29q34 -92 125 -92q23 0 79.5 2t88.5 2q222 0 298 -101q84 -110 84 -323z" />
<glyph unicode="&#x5dc;" horiz-adv-x="888" d="M819 797q0 -273 -150 -501.5t-400 -342.5h-31l21 216q152 63 285 214q146 166 146 315q0 90 -98 90h-413q-71 0 -94 48q-14 27 -20 113l-32 435l163 43l17 -14q-22 -333 -22 -343q0 -49 14 -62q11 -11 63 -11h376q175 0 175 -200z" />
<glyph unicode="&#x5dd;" horiz-adv-x="1093" d="M997 0h-871v722q0 190 -59 335l83 21q39 -81 138 -81h479q230 0 230 -251v-746zM879 202v333q0 149 -38 198q-44 57 -188 57h-406v-588h632z" />
<glyph unicode="&#x5de;" horiz-adv-x="1153" d="M1084 209l-69 -209h-582l83 209h452l-46 328q-20 145 -76 207q-64 70 -204 70q-195 0 -282 -372l-104 -442h-173l106 318q84 260 84 297q0 34 -20 107q-19 69 -119 69q-16 0 -45 -1.5t-42 -1.5q31 134 31 169q0 49 -22 103l69 29q29 -82 143 -94q82 -9 97 -94l27 -163 q107 172 118 186q80 94 188 94h63q289 0 306 -393z" />
<glyph unicode="&#x5df;" horiz-adv-x="511" d="M424 954q-45 -80 -45 -211v-17l1 -42l32 -978l-162 -67l7 1099q0 44 -94 52q8 -1 -118 -1q32 135 32 169q0 49 -22 103l68 28q35 -95 163 -95q16 0 50.5 1.5t52.5 1.5z" />
<glyph unicode="&#x5e0;" horiz-adv-x="610" d="M519 490q0 -356 -89 -490h-395l65 209h303q0 215 -28 461q-14 119 -113 119h-177q27 116 27 165t-22 104l72 31q22 -60 66 -79q29 -12 103 -12q188 0 188 -221v-287z" />
<glyph unicode="&#x5e1;" horiz-adv-x="1132" d="M1060 738q0 -121 -60 -307q-60 -189 -131 -282q-97 -126 -268 -149l-299 -39q-139 198 -184 757q-10 124 -18 178q-16 105 -45 173l81 29q60 -100 132 -100h518q274 0 274 -260zM918 604q0 87 -50 136t-138 49h-497q12 -147 49 -316q47 -211 103 -291l193 14 q340 23 340 408z" />
<glyph unicode="&#x5e2;" horiz-adv-x="1037" d="M973 956q-32 -104 -63 -276l-48 -287q-32 -205 -140 -283q-101 -72 -648 -212l30 214q149 29 297 68l-157 547q-19 65 -112 65q-14 0 -41.5 -1.5t-39.5 -1.5q31 134 31 169q0 49 -22 103l68 28q35 -94 157 -94q15 0 46.5 1.5t47.5 1.5l35 -46q-42 -59 -42 -159 q0 -61 17 -125l117 -460q133 39 189 109q53 65 76 206q33 199 33 214q0 56 -114 56q-21 0 -52 -2t-37 -2q39 126 39 177q0 36 -9 70l64 25q28 -63 96 -63h155z" />
<glyph unicode="&#x5e3;" horiz-adv-x="901" d="M814 769q0 -109 -12 -327t-12 -327q0 -287 20 -421l-171 -50l35 975v5q0 92 -34 128q-36 36 -133 36h-285v-141q0 -74 69 -74h144l-52 -183h-183q-118 0 -118 112q0 57 21.5 170t21.5 171q0 109 -36 235l78 19q42 -104 227 -104q26 0 79.5 2t80.5 2q124 0 182 -39 q78 -52 78 -189z" />
<glyph unicode="&#x5e4;" horiz-adv-x="984" d="M915 594q0 -184 -53 -354q-75 -240 -218 -240h-566l49 205h515q85 0 118 44q28 37 28 127q0 190 -18 264q-40 162 -173 162h-367v-137q0 -78 104 -78q17 0 47.5 2t43.5 2l-34 -183h-183q-118 0 -118 111q0 54 21.5 162t21.5 163q0 107 -36 234l78 19q41 -100 171 -100 h301q159 0 222 -130q46 -94 46 -273z" />
<glyph unicode="&#x5e5;" horiz-adv-x="982" d="M922 994l-39 -223q-107 0 -107 1t11 1q-68 -4 -80 -35q-62 -174 -96 -226q-60 -90 -192 -153l22 -665l-161 -52v1018q0 80 -37 110q-28 22 -95 22q-15 0 -49 -1t-54 -1q43 120 43 169q0 56 -19 101l68 28q40 -89 122 -89q121 0 129 -139l24 -396q53 36 72 53q29 26 57 71 q69 113 69 268q0 15 -2.5 45t-2.5 45q0 49 51 60q9 2 89 2q124 0 177 -14z" />
<glyph unicode="&#x5e6;" horiz-adv-x="1005" d="M932 994l-36 -212h-107q-56 0 -72 -44q-27 -97 -93 -288q66 -83 209 -240q26 -26 26 -33q0 -9 -93 -177h-701l49 205h508l-294 457q-53 81 -115 106q-49 20 -157 20q42 105 42 169q0 57 -18 101l68 29q30 -69 90 -84q22 -6 128 -6l25 -45q-26 -54 -26 -106q0 -65 72 -174 q19 -29 119 -157q29 77 41 206q8 106 17 212q3 26 23.5 47.5t46.5 21.5q19 0 56 1t56 1q93 0 136 -10z" />
<glyph unicode="&#x5e7;" horiz-adv-x="1056" d="M991 741q0 -255 -139 -449q-67 -93 -181 -188q-118 -98 -220 -143h-18l28 242q140 51 264 166q146 135 146 263q0 156 -161 156h-643q42 117 42 169q0 61 -18 108l71 28q40 -96 159 -96h438q232 0 232 -256zM290 -301l-176 -65l17 929l138 34z" />
<glyph unicode="&#x5e8;" horiz-adv-x="880" d="M785 0h-158q23 566 23 583q0 117 -43 161t-159 44h-401q39 140 39 175q0 53 -20 102l71 28q41 -100 194 -100q31 0 97 4.5t99 4.5q122 0 181 -53q77 -70 77 -247v-702z" />
<glyph unicode="&#x5e9;" horiz-adv-x="1378" d="M1315 954l-186 -582q-55 -171 -112 -243q-81 -102 -231 -118l-444 -50q-52 123 -98 310q-50 203 -50 320q0 30 5.5 91.5t5.5 90.5q0 13 -35 17q-15 2 -37 2q-14 0 -32 -1l-53 -2h1q28 134 28 171q0 46 -21 102l71 28q21 -73 101 -89q21 -4 145 -4l24 -54 q-85 -128 -85 -328q0 -101 37 -228t90 -215l46 1q180 583 180 591q0 19 -37 26q-17 3 -44 3q-13 0 -29 -1q-69 -3 -54 -3q41 146 41 175q0 32 -15 74l66 25q23 -55 93 -65q4 -1 123 -1l32 -45l-242 -770l102 6q142 9 221.5 91.5t201.5 464.5q4 13 4 21q0 19 -39 25 q-19 3 -47 3q-14 0 -31 -1q-73 -3 -57 -3q40 142 40 172q0 41 -17 79l68 24q21 -57 105 -67h131z" />
<glyph unicode="&#x5ea;" horiz-adv-x="1160" d="M1065 0h-160q20 642 20 652q0 60 -35 98t-94 38h-418l-1 -54q0 -87 15.5 -259t15.5 -256q0 -158 -75 -219h-297l49 209h145q32 0 32 55q0 27 -4 173q-1 46 -1 85q0 52 2 91q5 96 26 170q-86 0 -146 20q34 99 34 176q0 31 -17 86l71 27q15 -40 57 -67.5t85 -27.5h418 q131 0 193 -55q65 -58 68 -187z" />
<glyph unicode="&#x5f0;" horiz-adv-x="1116" d="M1022 0h-163q18 634 18 642q0 91 -45 124q-35 25 -115 25q-17 0 -53.5 -1t-56.5 -1q31 136 31 169q0 49 -22 103l68 28q31 -65 74 -81q26 -10 112 -10q130 0 133 -138zM464 0h-163q18 634 18 642q0 91 -45 124q-35 25 -115 25q-17 0 -53.5 -1t-56.5 -1q31 136 31 169 q0 49 -22 103l68 28q31 -65 74 -81q26 -10 112 -10q130 0 133 -138z" />
<glyph unicode="&#x5f1;" horiz-adv-x="1069" d="M975 0h-163q18 634 18 642q0 91 -45 124q-35 25 -115 25q-17 0 -53.5 -1t-56.5 -1q31 136 31 169q0 49 -22 103l68 28q31 -65 74 -81q26 -10 112 -10q130 0 133 -138zM438 840q0 -174 -66 -422l-145 -36l-13 15q98 271 98 327q0 65 -81 65h-182q31 134 31 169 q0 45 -24 103l70 28q32 -75 116 -89l133 -19q63 -27 63 -141z" />
<glyph unicode="&#x5f2;" horiz-adv-x="1022" d="M949 840q0 -174 -66 -422l-145 -36l-13 15q98 271 98 327q0 65 -81 65h-182q31 134 31 169q0 45 -24 103l70 28q32 -75 116 -89l133 -19q63 -27 63 -141zM438 840q0 -174 -66 -422l-145 -36l-13 15q98 271 98 327q0 65 -81 65h-182q31 134 31 169q0 45 -24 103l70 28 q32 -75 116 -89l133 -19q63 -27 63 -141z" />
<glyph unicode="&#x5f3;" horiz-adv-x="382" d="M291 1095q0 -267 -169 -383l-49 45q47 63 47 219q0 65 -13 168h158q26 0 26 -49z" />
<glyph unicode="&#x5f4;" horiz-adv-x="689" d="M598 1095q0 -267 -169 -383l-49 45q47 63 47 219q0 65 -12 168h158q25 0 25 -49zM291 1095q0 -267 -169 -383l-49 45q47 63 47 219q0 65 -13 168h158q26 0 26 -49z" />
<glyph unicode="&#x2000;" horiz-adv-x="752" />
<glyph unicode="&#x2001;" horiz-adv-x="1505" />
<glyph unicode="&#x2002;" horiz-adv-x="752" />
<glyph unicode="&#x2003;" horiz-adv-x="1505" />
<glyph unicode="&#x2004;" horiz-adv-x="501" />
<glyph unicode="&#x2005;" horiz-adv-x="376" />
<glyph unicode="&#x2006;" horiz-adv-x="250" />
<glyph unicode="&#x2007;" horiz-adv-x="250" />
<glyph unicode="&#x2008;" horiz-adv-x="188" />
<glyph unicode="&#x2009;" horiz-adv-x="301" />
<glyph unicode="&#x200a;" horiz-adv-x="83" />
<glyph unicode="&#x2010;" horiz-adv-x="713" d="M608 413h-503v136h503v-136z" />
<glyph unicode="&#x2011;" horiz-adv-x="713" d="M608 413h-503v136h503v-136z" />
<glyph unicode="&#x2013;" horiz-adv-x="1042" d="M946 413h-855v136h855v-136z" />
<glyph unicode="&#x2014;" horiz-adv-x="2048" d="M105 413v136h1838v-136h-1838z" />
<glyph unicode="&#x2018;" horiz-adv-x="373" d="M300 1144q-47 -63 -47 -219q0 -66 12 -168h-158q-25 0 -25 49q0 267 169 382z" />
<glyph unicode="&#x2019;" horiz-adv-x="382" d="M291 1095q0 -267 -169 -383l-49 45q47 63 47 219q0 65 -13 168h158q26 0 26 -49z" />
<glyph unicode="&#x201a;" horiz-adv-x="427" d="M309 194q0 -267 -169 -382l-49 44q47 63 47 220q0 65 -12 167h157q26 0 26 -49z" />
<glyph unicode="&#x201c;" horiz-adv-x="680" d="M607 1144q-46 -63 -46 -219q0 -66 12 -168h-158q-26 0 -26 49q0 267 169 382zM300 1144q-47 -63 -47 -219q0 -66 12 -168h-158q-25 0 -25 49q0 267 169 382z" />
<glyph unicode="&#x201d;" horiz-adv-x="689" d="M598 1095q0 -267 -169 -383l-49 45q47 63 47 219q0 65 -12 168h158q25 0 25 -49zM291 1095q0 -267 -169 -383l-49 45q47 63 47 219q0 65 -13 168h158q26 0 26 -49z" />
<glyph unicode="&#x201e;" horiz-adv-x="735" d="M616 194q0 -267 -168 -382l-49 44q46 63 46 220q0 65 -12 167h158q25 0 25 -49zM309 194q0 -267 -169 -382l-49 44q47 63 47 220q0 65 -12 167h157q26 0 26 -49z" />
<glyph unicode="&#x2026;" horiz-adv-x="1317" d="M1217 100l-127 -135h-28l-126 135v27l126 131h28l127 -131v-27zM778 100l-126 -135h-28l-127 135v27l127 131h28l126 -131v-27zM335 100l-126 -135h-28l-126 135v27l126 131h28l126 -131v-27z" />
<glyph unicode="&#x202f;" horiz-adv-x="301" />
<glyph unicode="&#x2039;" horiz-adv-x="682" d="M563 -8h-57l-387 472l387 470h57l-244 -470z" />
<glyph unicode="&#x203a;" horiz-adv-x="682" d="M567 462l-394 -470h-58l243 470l-243 472h58z" />
<glyph unicode="&#x205f;" horiz-adv-x="376" />
<glyph unicode="&#x2122;" horiz-adv-x="2007" d="M1973 549h-398v36q44 1 63 6q34 9 47 38q9 20 9 86v492l-307 -658h-32l-308 649v-482q0 -99 36 -120q19 -11 57 -11h36v-36h-306v36q86 0 104 41q9 21 9 90v466q0 108 -37 127q-19 10 -76 10v37h286l273 -572l265 572h279v-37q-41 -1 -60 -6q-30 -8 -42 -37 q-9 -22 -9 -92v-468q0 -80 16 -101q20 -26 95 -30v-36zM801 1155h-34q-20 141 -194 141h-75v-579q0 -76 16 -100q20 -29 90 -32v-36h-374v36q68 6 86 34q14 22 14 97v580h-76q-87 0 -128 -27q-46 -31 -62 -114h-34l21 201h728z" />
<glyph unicode="&#xfb00;" horiz-adv-x="1030" d="M1033 1227q-8 -39 -41 -39q-11 0 -32 5q-24 6 -32 7q-5 1 -10 1q-38 0 -72 -36q-38 -40 -38 -100v-204h137q3 -7 3 -14q0 -22 -19.5 -41t-41.5 -19h-79v-654q0 -73 -33.5 -114.5t-81.5 -41.5q-9 0 -18 2v808h-114q-5 10 -5 21q0 53 62 53h57v147q0 106 65.5 182t167.5 76 q12 0 24 -1q48 -5 101 -38zM518 1227q-8 -39 -41 -39q-11 0 -32 5q-24 6 -32 7q-5 1 -10 1q-38 0 -72 -36q-38 -40 -38 -100v-204h137q3 -7 3 -14q0 -22 -19.5 -41t-41.5 -19h-79v-654q0 -73 -33.5 -114.5t-81.5 -41.5q-9 0 -18 2v808h-114q-5 10 -5 21q0 53 62 53h57v147 q0 106 65.5 182t167.5 76q12 0 24 -1q48 -5 101 -38z" />
<glyph unicode="&#xfb01;" horiz-adv-x="895" d="M793 1086q0 -37 -26 -62.5t-62 -25.5t-62 25.5t-26 62.5q0 36 26 61.5t62 25.5t62 -25.5t26 -61.5zM771 -21q-135 0 -135 163v665q0 82 67 82q68 0 68 -82v-828zM518 1227q-8 -39 -41 -39q-11 0 -32 5q-24 6 -32 7q-5 1 -10 1q-38 0 -72 -36q-38 -40 -38 -100v-204h137 q3 -7 3 -14q0 -22 -19.5 -41t-41.5 -19h-79v-654q0 -73 -33.5 -114.5t-81.5 -41.5q-9 0 -18 2v808h-114q-5 10 -5 21q0 53 62 53h57v147q0 106 65.5 182t167.5 76q12 0 24 -1q48 -5 101 -38z" />
<glyph unicode="&#xfb02;" horiz-adv-x="857" d="M754 -21v1122q0 168 -137 168v-1133q0 -157 137 -157zM518 1227q-8 -39 -41 -39q-11 0 -32 5q-24 6 -32 7q-5 1 -10 1q-38 0 -72 -36q-38 -40 -38 -100v-204h137q3 -7 3 -14q0 -22 -19.5 -41t-41.5 -19h-79v-654q0 -73 -33.5 -114.5t-81.5 -41.5q-9 0 -18 2v808h-114 q-5 10 -5 21q0 53 62 53h57v147q0 106 65.5 182t167.5 76q12 0 24 -1q48 -5 101 -38z" />
<glyph unicode="&#xfb03;" horiz-adv-x="1410" d="M1308 1086q0 -37 -26 -62.5t-62 -25.5t-62 25.5t-26 62.5q0 36 26 61.5t62 25.5t62 -25.5t26 -61.5zM1286 -21q-135 0 -135 163v665q0 82 67 82q68 0 68 -82v-828zM1033 1227q-8 -39 -41 -39q-11 0 -32 5q-24 6 -32 7q-5 1 -10 1q-38 0 -72 -36q-38 -40 -38 -100v-204 h137q3 -7 3 -14q0 -22 -19.5 -41t-41.5 -19h-79v-654q0 -73 -33.5 -114.5t-81.5 -41.5q-9 0 -18 2v808h-114q-5 10 -5 21q0 53 62 53h57v147q0 106 65.5 182t167.5 76q12 0 24 -1q48 -5 101 -38zM518 1227q-8 -39 -41 -39q-11 0 -32 5q-24 6 -32 7q-5 1 -10 1q-38 0 -72 -36 q-38 -40 -38 -100v-204h137q3 -7 3 -14q0 -22 -19.5 -41t-41.5 -19h-79v-654q0 -73 -33.5 -114.5t-81.5 -41.5q-9 0 -18 2v808h-114q-5 10 -5 21q0 53 62 53h57v147q0 106 65.5 182t167.5 76q12 0 24 -1q48 -5 101 -38z" />
<glyph unicode="&#xfb04;" horiz-adv-x="1372" d="M1269 -21v1122q0 168 -137 168v-1133q0 -157 137 -157zM1033 1227q-8 -39 -41 -39q-11 0 -32 5q-24 6 -32 7q-5 1 -10 1q-38 0 -72 -36q-38 -40 -38 -100v-204h137q3 -7 3 -14q0 -22 -19.5 -41t-41.5 -19h-79v-654q0 -73 -33.5 -114.5t-81.5 -41.5q-9 0 -18 2v808h-114 q-5 10 -5 21q0 53 62 53h57v147q0 106 65.5 182t167.5 76q12 0 24 -1q48 -5 101 -38zM518 1227q-8 -39 -41 -39q-11 0 -32 5q-24 6 -32 7q-5 1 -10 1q-38 0 -72 -36q-38 -40 -38 -100v-204h137q3 -7 3 -14q0 -22 -19.5 -41t-41.5 -19h-79v-654q0 -73 -33.5 -114.5 t-81.5 -41.5q-9 0 -18 2v808h-114q-5 10 -5 21q0 53 62 53h57v147q0 106 65.5 182t167.5 76q12 0 24 -1q48 -5 101 -38z" />
<glyph unicode="&#xfb06;" horiz-adv-x="1368" d="M1344 17q-53 -33 -102 -37q-12 -1 -24 -1q-102 0 -167.5 76t-65.5 182v555h-57q-62 0 -62 53q0 11 5 21h114v403q10 3 21 3q43 0 76 -42q36 -46 36 -115v-249h80q22 0 41.5 -19t19.5 -41q0 -8 -3 -14h-138v-613q0 -59 38 -99q33 -36 72 -36q5 0 11 1q7 1 32 7q21 5 32 5 q32 0 41 -40zM750 211q-6 -115 -115 -178q-93 -54 -224 -54q-105 0 -192 42q-96 47 -127 127q19 5 35 5q25 0 47 -15l34 -28q74 -51 180 -54h12q76 0 133 36q61 40 67 108q1 12 1 24q0 68 -40 119q-44 56 -124 76l-96 25q-246 61 -246 213q0 12 2 24q14 105 113 161 q81 47 189 47q109 0 197 -52q82 -48 123 -127q-16 -6 -30 -6q-21 0 -102 51q-73 47 -167 51h-14q-77 0 -122 -42q-44 -40 -44 -103q0 -109 160 -149l98 -24q111 -28 179 -95q73 -72 73 -169v-13z" />
<glyph unicode="&#xfb1d;" horiz-adv-x="658" d="M585 840q0 -174 -66 -422l-145 -36l-13 15q98 271 98 327q0 65 -81 65h-182q31 134 31 169q0 45 -24 103l70 28q32 -75 116 -89l133 -19q63 -27 63 -141zM147 -279h-147v146h147v-146z" />
<glyph unicode="&#xfb1f;" horiz-adv-x="1421" d="M1348 840q0 -174 -66 -422l-145 -36l-13 15q98 271 98 327q0 65 -81 65h-182q31 134 31 169q0 45 -24 103l70 28q32 -75 116 -89l133 -19q63 -27 63 -141zM837 840q0 -174 -66 -422l-145 -36l-13 15q98 271 98 327q0 65 -81 65h-182q31 134 31 169q0 45 -24 103l70 28 q32 -75 116 -89l133 -19q63 -27 63 -141zM399 -256h-399v123h399v-123z" />
<glyph unicode="&#xfb20;" horiz-adv-x="1037" d="M973 956q-32 -104 -63 -276l-48 -287q-32 -205 -140 -283q-101 -72 -648 -212l30 214q149 29 297 68l-157 547q-19 65 -112 65q-14 0 -41.5 -1.5t-39.5 -1.5q31 134 31 169q0 49 -22 103l68 28q35 -94 157 -94q15 0 46.5 1.5t47.5 1.5l35 -46q-42 -59 -42 -159 q0 -61 17 -125l117 -460q133 39 189 109q53 65 76 206q33 199 33 214q0 56 -114 56q-21 0 -52 -2t-37 -2q39 126 39 177q0 36 -9 70l64 25q28 -63 96 -63h155z" />
<glyph unicode="&#xfb21;" horiz-adv-x="1139" d="M1085 173l-73 -194h-42q-63 180 -252 393q-176 200 -354 312q-60 -94 -60 -206q0 -159 103 -305l-74 -173h-309l62 171l112 17q-21 71 -21 206q0 78 35.5 176t85.5 158q-60 41 -207 119q42 103 42 153q0 36 -8 76l75 22q32 -85 114 -143q139 -98 409 -307q51 186 51 330 q0 54 127 54q93 0 157 -12l-49 -227l-60 3q-75 0 -114 -73q-12 -24 -45 -140q173 -166 295 -410z" />
<glyph unicode="&#xfb22;" horiz-adv-x="967" d="M915 1005l-51 -217q-16 0 -44 2.5t-39 2.5q-50 0 -50 -49q0 -8 23 -744h-180l33 788h-562q39 140 39 175q0 53 -20 102l72 28q39 -96 158 -96h362q115 0 242 26z" />
<glyph unicode="&#xfb23;" horiz-adv-x="1074" d="M977 941q-62 -84 -62 -226q0 -31 31 -715h-179l25 788h-723q38 140 38 175q0 53 -20 102l72 28q40 -96 159 -96h637zM276 0h-174q3 160 26 480l139 33q-8 -81 -8 -210q0 -167 17 -303z" />
<glyph unicode="&#xfb24;" horiz-adv-x="909" d="M840 577q0 -118 -27 -240q-32 -145 -90 -221t-64 -81q-36 -35 -94 -35h-505l83 209h430q144 0 144 158q0 198 -26 276q-48 145 -202 145h-401q31 134 31 169q0 49 -22 103l68 29q34 -92 125 -92q23 0 79.5 2t88.5 2q222 0 298 -101q84 -110 84 -323z" />
<glyph unicode="&#xfb25;" horiz-adv-x="888" d="M819 797q0 -273 -150 -501.5t-400 -342.5h-31l21 216q152 63 285 214q146 166 146 315q0 90 -98 90h-413q-71 0 -94 48q-14 27 -20 113l-32 435l163 43l17 -14q-22 -333 -22 -343q0 -49 14 -62q11 -11 63 -11h376q175 0 175 -200z" />
<glyph unicode="&#xfb26;" horiz-adv-x="1093" d="M997 0h-871v722q0 190 -59 335l83 21q39 -81 138 -81h479q230 0 230 -251v-746zM879 202v333q0 149 -38 198q-44 57 -188 57h-406v-588h632z" />
<glyph unicode="&#xfb27;" horiz-adv-x="880" d="M785 0h-158q23 566 23 583q0 117 -43 161t-159 44h-401q39 140 39 175q0 53 -20 102l71 28q41 -100 194 -100q31 0 97 4.5t99 4.5q122 0 181 -53q77 -70 77 -247v-702z" />
<glyph unicode="&#xfb28;" horiz-adv-x="1160" d="M1065 0h-160q20 642 20 652q0 60 -35 98t-94 38h-418l-1 -54q0 -87 15.5 -259t15.5 -256q0 -158 -75 -219h-297l49 209h145q32 0 32 55q0 27 -4 173q-1 46 -1 85q0 52 2 91q5 96 26 170q-86 0 -146 20q34 99 34 176q0 31 -17 86l71 27q15 -40 57 -67.5t85 -27.5h418 q131 0 193 -55q65 -58 68 -187z" />
<glyph unicode="&#xfb29;" horiz-adv-x="713" d="M617 422h-201v-205h-119v205h-201v118h201v208h119v-208h201v-118z" />
<glyph unicode="&#xfb2a;" horiz-adv-x="2625" d="M2562 954l-186 -582q-55 -171 -112 -243q-81 -102 -231 -118l-444 -50q-52 123 -98 310q-50 203 -50 320q0 30 5.5 91.5t5.5 90.5q0 13 -35 17q-15 2 -37 2q-14 0 -32 -1l-53 -2h1q28 134 28 171q0 46 -21 102l71 28q21 -73 101 -89q21 -4 145 -4l24 -54 q-85 -128 -85 -328q0 -101 37 -228t90 -215l46 1q180 583 180 591q0 19 -37 26q-17 3 -44 3q-13 0 -29 -1q-69 -3 -54 -3q41 146 41 175q0 32 -15 74l66 25q23 -55 93 -65q4 -1 123 -1l32 -45l-242 -770l102 6q142 9 221.5 91.5t201.5 464.5q4 13 4 21q0 19 -39 25 q-19 3 -47 3q-14 0 -31 -1q-73 -3 -57 -3q40 142 40 172q0 41 -17 79l68 24q21 -57 105 -67h131zM999 1135h-147v145h147v-145z" />
<glyph unicode="&#xfb2b;" horiz-adv-x="2625" d="M2562 954l-186 -582q-55 -171 -112 -243q-81 -102 -231 -118l-444 -50q-52 123 -98 310q-50 203 -50 320q0 30 5.5 91.5t5.5 90.5q0 13 -35 17q-15 2 -37 2q-14 0 -32 -1l-53 -2h1q28 134 28 171q0 46 -21 102l71 28q21 -73 101 -89q21 -4 145 -4l24 -54 q-85 -128 -85 -328q0 -101 37 -228t90 -215l46 1q180 583 180 591q0 19 -37 26q-17 3 -44 3q-13 0 -29 -1q-69 -3 -54 -3q41 146 41 175q0 32 -15 74l66 25q23 -55 93 -65q4 -1 123 -1l32 -45l-242 -770l102 6q142 9 221.5 91.5t201.5 464.5q4 13 4 21q0 19 -39 25 q-19 3 -47 3q-14 0 -31 -1q-73 -3 -57 -3q40 142 40 172q0 41 -17 79l68 24q21 -57 105 -67h131zM270 1135h-147v145h147v-145z" />
<glyph unicode="&#xfb2e;" horiz-adv-x="1538" d="M1484 173l-73 -194h-42q-63 180 -252 393q-176 200 -354 312q-60 -94 -60 -206q0 -159 103 -305l-74 -173h-309l62 171l112 17q-21 71 -21 206q0 78 35.5 176t85.5 158q-60 41 -207 119q42 103 42 153q0 36 -8 76l75 22q32 -85 114 -143q139 -98 409 -307q51 186 51 330 q0 54 127 54q93 0 157 -12l-49 -227l-60 3q-75 0 -114 -73q-12 -24 -45 -140q173 -166 295 -410zM399 -256h-399v123h399v-123z" />
<glyph unicode="&#xfb2f;" horiz-adv-x="1538" d="M1484 173l-73 -194h-42q-63 180 -252 393q-176 200 -354 312q-60 -94 -60 -206q0 -159 103 -305l-74 -173h-309l62 171l112 17q-21 71 -21 206q0 78 35.5 176t85.5 158q-60 41 -207 119q42 103 42 153q0 36 -8 76l75 22q32 -85 114 -143q139 -98 409 -307q51 186 51 330 q0 54 127 54q93 0 157 -12l-49 -227l-60 3q-75 0 -114 -73q-12 -24 -45 -140q173 -166 295 -410zM399 -256h-145l8 -207h-121l6 207h-147v123h399v-123z" />
<glyph unicode="&#xfb30;" horiz-adv-x="1286" d="M1232 173l-73 -194h-42q-63 180 -252 393q-176 200 -354 312q-60 -94 -60 -206q0 -159 103 -305l-74 -173h-309l62 171l112 17q-21 71 -21 206q0 78 35.5 176t85.5 158q-60 41 -207 119q42 103 42 153q0 36 -8 76l75 22q32 -85 114 -143q139 -98 409 -307q51 186 51 330 q0 54 127 54q93 0 157 -12l-49 -227l-60 3q-75 0 -114 -73q-12 -24 -45 -140q173 -166 295 -410zM147 442h-147v146h147v-146z" />
<glyph unicode="&#xfb31;" horiz-adv-x="1080" d="M1063 209l-69 -209h-804l66 209h577q-21 371 -23 388q-17 126 -79 161q-57 32 -239 32q-32 0 -123.5 -1t-152.5 -1q38 140 38 175q0 53 -20 102l72 28q40 -96 159 -96h195q141 0 220 -82.5t79 -224.5q0 -95 -13 -240l-22 -241h139zM147 442h-147v146h147v-146z" />
<glyph unicode="&#xfb32;" horiz-adv-x="831" d="M795 0h-143q-11 156 -42 359h-14l-128 -208q-44 -71 -64 -93q-39 -43 -95 -58l-127 -35l-15 14l61 221l85 30q72 24 171 123q104 106 104 170q0 177 -27.5 223t-130.5 46q-19 0 -78.5 -1.5t-100.5 -1.5q31 134 31 169q0 49 -22 103l68 28q27 -72 92 -87q18 -4 136 -4 q169 0 169 -168q0 -44 -7 -132t-7 -132q0 -116 30 -284zM147 442h-147v146h147v-146z" />
<glyph unicode="&#xfb33;" horiz-adv-x="1114" d="M1062 1005l-51 -217q-16 0 -44 2.5t-39 2.5q-50 0 -50 -49q0 -8 23 -744h-180l33 788h-562q39 140 39 175q0 53 -20 102l72 28q39 -96 158 -96h362q115 0 242 26zM147 442h-147v146h147v-146z" />
<glyph unicode="&#xfb34;" horiz-adv-x="1221" d="M1124 941q-62 -84 -62 -226q0 -31 31 -715h-179l25 788h-723q38 140 38 175q0 53 -20 102l72 28q40 -96 159 -96h637zM423 0h-174q3 160 26 480l139 33q-8 -81 -8 -210q0 -167 17 -303zM147 442h-147v146h147v-146z" />
<glyph unicode="&#xfb35;" horiz-adv-x="705" d="M611 0h-163q18 634 18 642q0 91 -45 124q-35 25 -115 25q-17 0 -53.5 -1t-56.5 -1q31 136 31 169q0 49 -22 103l68 28q31 -65 74 -81q26 -10 112 -10q130 0 133 -138zM147 442h-147v146h147v-146z" />
<glyph unicode="&#xfb36;" horiz-adv-x="765" d="M684 958l-56 -170q-93 0 -104 -6q-24 -13 -24 -93q0 -29 5 -112l38 -577h-172v513q0 145 46 276h-221q31 134 31 169q0 49 -22 103l68 28q34 -91 125 -91h258zM147 442h-147v146h147v-146z" />
<glyph unicode="&#xfb38;" horiz-adv-x="1297" d="M1224 729q0 -121 -36.5 -263t-95.5 -245q-100 -175 -328 -214l-268 -45q-79 118 -130 304q-49 178 -49 328q0 104 24 169q4 11 4 15q0 10 -33 12q-15 1 -40 1h-26q-55 -2 -50 -2q28 134 28 171q0 46 -21 102l71 28q21 -73 103 -89q19 -4 147 -4l24 -54q-46 -57 -78 -155 q-31 -94 -31 -171q0 -102 41 -228q42 -129 103 -206q160 13 196 19q113 19 180 72q122 94 122 310q0 211 -198 211q-107 0 -168 -87l-45 32q60 171 83 199q51 65 192 65q279 0 279 -275zM147 442h-147v146h147v-146z" />
<glyph unicode="&#xfb39;" horiz-adv-x="658" d="M585 840q0 -174 -66 -422l-145 -36l-13 15q98 271 98 327q0 65 -81 65h-182q31 134 31 169q0 45 -24 103l70 28q32 -75 116 -89l133 -19q63 -27 63 -141zM147 442h-147v146h147v-146z" />
<glyph unicode="&#xfb3a;" horiz-adv-x="1020" d="M933 769q0 -109 -12 -327t-12 -327q0 -287 20 -421l-171 -50l35 975v5q0 92 -34 128q-36 37 -133 37h-432q37 121 37 169q0 49 -22 103l68 28q33 -91 125 -91h312q219 0 219 -229zM147 442h-147v146h147v-146z" />
<glyph unicode="&#xfb3b;" horiz-adv-x="1056" d="M987 577q0 -118 -27 -240q-32 -145 -90 -221t-64 -81q-36 -35 -94 -35h-505l83 209h430q144 0 144 158q0 198 -26 276q-48 145 -202 145h-401q31 134 31 169q0 49 -22 103l68 29q34 -92 125 -92q23 0 79.5 2t88.5 2q222 0 298 -101q84 -110 84 -323zM147 442h-147v146 h147v-146z" />
<glyph unicode="&#xfb3c;" horiz-adv-x="1035" d="M966 797q0 -273 -150 -501.5t-400 -342.5h-31l21 216q152 63 285 214q146 166 146 315q0 90 -98 90h-413q-71 0 -94 48q-14 27 -20 113l-32 435l163 43l17 -14q-22 -333 -22 -343q0 -49 14 -62q11 -11 63 -11h376q175 0 175 -200zM147 442h-147v146h147v-146z" />
<glyph unicode="&#xfb3e;" horiz-adv-x="1300" d="M1231 209l-69 -209h-582l83 209h452l-46 328q-20 145 -76 207q-64 70 -204 70q-195 0 -282 -372l-104 -442h-173l106 318q84 260 84 297q0 34 -20 107q-19 69 -119 69q-16 0 -45 -1.5t-42 -1.5q31 134 31 169q0 49 -22 103l69 29q29 -82 143 -94q82 -9 97 -94l27 -163 q107 172 118 186q80 94 188 94h63q289 0 306 -393zM147 442h-147v146h147v-146z" />
<glyph unicode="&#xfb40;" horiz-adv-x="757" d="M666 490q0 -356 -89 -490h-395l65 209h303q0 215 -28 461q-14 119 -113 119h-177q27 116 27 165t-22 104l72 31q22 -60 66 -79q29 -12 103 -12q188 0 188 -221v-287zM147 442h-147v146h147v-146z" />
<glyph unicode="&#xfb41;" horiz-adv-x="1279" d="M1207 738q0 -121 -60 -307q-60 -189 -131 -282q-97 -126 -268 -149l-299 -39q-139 198 -184 757q-10 124 -18 178q-16 105 -45 173l81 29q60 -100 132 -100h518q274 0 274 -260zM1065 604q0 87 -50 136t-138 49h-497q12 -147 49 -316q47 -211 103 -291l193 14 q340 23 340 408zM147 442h-147v146h147v-146z" />
<glyph unicode="&#xfb43;" horiz-adv-x="1048" d="M961 769q0 -109 -12 -327t-12 -327q0 -287 20 -421l-171 -50l35 975v5q0 92 -34 128q-36 36 -133 36h-285v-141q0 -74 69 -74h144l-52 -183h-183q-118 0 -118 112q0 57 21.5 170t21.5 171q0 109 -36 235l78 19q42 -104 227 -104q26 0 79.5 2t80.5 2q124 0 182 -39 q78 -52 78 -189zM147 442h-147v146h147v-146z" />
<glyph unicode="&#xfb44;" horiz-adv-x="1131" d="M1062 594q0 -184 -53 -354q-75 -240 -218 -240h-566l49 205h515q85 0 118 44q28 37 28 127q0 190 -18 264q-40 162 -173 162h-367v-137q0 -78 104 -78q17 0 47.5 2t43.5 2l-34 -183h-183q-118 0 -118 111q0 54 21.5 162t21.5 163q0 107 -36 234l78 19q41 -100 171 -100 h301q159 0 222 -130q46 -94 46 -273zM147 442h-147v146h147v-146z" />
<glyph unicode="&#xfb46;" horiz-adv-x="1152" d="M1079 994l-36 -212h-107q-56 0 -72 -44q-27 -97 -93 -288q66 -83 209 -240q26 -26 26 -33q0 -9 -93 -177h-701l49 205h508l-294 457q-53 81 -115 106q-49 20 -157 20q42 105 42 169q0 57 -18 101l68 29q30 -69 90 -84q22 -6 128 -6l25 -45q-26 -54 -26 -106 q0 -65 72 -174q19 -29 119 -157q29 77 41 206q8 106 17 212q3 26 23.5 47.5t46.5 21.5q19 0 56 1t56 1q93 0 136 -10zM147 442h-147v146h147v-146z" />
<glyph unicode="&#xfb47;" horiz-adv-x="1203" d="M1138 741q0 -255 -139 -449q-67 -93 -181 -188q-118 -98 -220 -143h-18l28 242q140 51 264 166q146 135 146 263q0 156 -161 156h-643q42 117 42 169q0 61 -18 108l71 28q40 -96 159 -96h438q232 0 232 -256zM437 -301l-176 -65l17 929l138 34zM147 442h-147v146h147 v-146z" />
<glyph unicode="&#xfb48;" horiz-adv-x="1027" d="M932 0h-158q23 566 23 583q0 117 -43 161t-159 44h-401q39 140 39 175q0 53 -20 102l71 28q41 -100 194 -100q31 0 97 4.5t99 4.5q122 0 181 -53q77 -70 77 -247v-702zM147 442h-147v146h147v-146z" />
<glyph unicode="&#xfb49;" horiz-adv-x="1525" d="M1462 954l-186 -582q-55 -171 -112 -243q-81 -102 -231 -118l-444 -50q-52 123 -98 310q-50 203 -50 320q0 30 5.5 91.5t5.5 90.5q0 13 -35 17q-15 2 -37 2q-14 0 -32 -1l-53 -2h1q28 134 28 171q0 46 -21 102l71 28q21 -73 101 -89q21 -4 145 -4l24 -54 q-85 -128 -85 -328q0 -101 37 -228t90 -215l46 1q180 583 180 591q0 19 -37 26q-17 3 -44 3q-13 0 -29 -1q-69 -3 -54 -3q41 146 41 175q0 32 -15 74l66 25q23 -55 93 -65q4 -1 123 -1l32 -45l-242 -770l102 6q142 9 221.5 91.5t201.5 464.5q4 13 4 21q0 19 -39 25 q-19 3 -47 3q-14 0 -31 -1q-73 -3 -57 -3q40 142 40 172q0 41 -17 79l68 24q21 -57 105 -67h131zM147 442h-147v146h147v-146z" />
<glyph unicode="&#xfb4a;" horiz-adv-x="1307" d="M1212 0h-160q20 642 20 652q0 60 -35 98t-94 38h-418l-1 -54q0 -87 15.5 -259t15.5 -256q0 -158 -75 -219h-297l49 209h145q32 0 32 55q0 27 -4 173q-1 46 -1 85q0 52 2 91q5 96 26 170q-86 0 -146 20q34 99 34 176q0 31 -17 86l71 27q15 -40 57 -67.5t85 -27.5h418 q131 0 193 -55q65 -58 68 -187zM147 442h-147v146h147v-146z" />
<glyph unicode="&#xfb4b;" horiz-adv-x="705" d="M611 0h-163q18 634 18 642q0 91 -45 124q-35 25 -115 25q-17 0 -53.5 -1t-56.5 -1q31 136 31 169q0 49 -22 103l68 28q31 -65 74 -81q26 -10 112 -10q130 0 133 -138zM147 1135h-147v145h147v-145z" />
<glyph unicode="&#xfb4c;" horiz-adv-x="934" d="M917 209l-69 -209h-804l66 209h577q-21 371 -23 388q-17 126 -79 161q-57 32 -239 32q-32 0 -123.5 -1t-152.5 -1q38 140 38 175q0 53 -20 102l72 28q40 -96 159 -96h195q141 0 220 -82.5t79 -224.5q0 -95 -13 -240l-22 -241h139zM252 1290q0 -27 -28 -27h-447 q-27 0 -27 27v43q0 28 27 28h447q28 0 28 -28v-43z" />
<glyph unicode="&#xfb4d;" horiz-adv-x="910" d="M841 577q0 -118 -27 -240q-32 -145 -90 -221t-64 -81q-36 -35 -94 -35h-505l83 209h430q144 0 144 158q0 198 -26 276q-48 145 -202 145h-401q31 134 31 169q0 49 -22 103l68 29q34 -92 125 -92q23 0 79.5 2t88.5 2q222 0 298 -101q84 -110 84 -323zM252 1290 q0 -27 -28 -27h-447q-27 0 -27 27v43q0 28 27 28h447q28 0 28 -28v-43z" />
<glyph unicode="&#xfb4e;" horiz-adv-x="985" d="M916 594q0 -184 -53 -354q-75 -240 -218 -240h-566l49 205h515q85 0 118 44q28 37 28 127q0 190 -18 264q-40 162 -173 162h-367v-137q0 -78 104 -78q17 0 47.5 2t43.5 2l-34 -183h-183q-118 0 -118 111q0 54 21.5 162t21.5 163q0 107 -36 234l78 19q41 -100 171 -100 h301q159 0 222 -130q46 -94 46 -273zM252 1290q0 -27 -28 -27h-447q-27 0 -27 27v43q0 28 27 28h447q28 0 28 -28v-43z" />
<glyph unicode="&#xfb4f;" horiz-adv-x="2027" d="M1973 173l-73 -194h-42q-63 180 -252 393q-176 200 -354 312q-60 -94 -60 -206q0 -159 103 -305l-74 -173h-309l62 171l112 17q-21 71 -21 206q0 78 35.5 176t85.5 158q-60 41 -207 119q42 103 42 153q0 36 -8 76l75 22q32 -85 114 -143q139 -98 409 -307q51 186 51 330 q0 54 127 54q93 0 157 -12l-49 -227l-60 3q-75 0 -114 -73q-12 -24 -45 -140q173 -166 295 -410zM819 797q0 -273 -150 -501.5t-400 -342.5h-31l21 216q152 63 285 214q146 166 146 315q0 90 -98 90h-413q-71 0 -94 48q-14 27 -20 113l-32 435l163 43l17 -14 q-22 -333 -22 -343q0 -49 14 -62q11 -11 63 -11h376q175 0 175 -200z" />
</font>
</defs>
</svg>
